<?xml version="1.0" encoding="UTF-8" standalone="no"?>
<!-- Created with Inkscape (http://www.inkscape.org/) -->

<svg
   xml:space="preserve"
   id="svg5"
   version="1.1"
   viewBox="0 0 45.411217 45.411209"
   height="45.411209mm"
   width="45.411217mm"
   xmlns="http://www.w3.org/2000/svg"
   xmlns:svg="http://www.w3.org/2000/svg"><defs
     id="defs2" /><g
     id="layer1"
     transform="translate(-68.077379,-90.580379)"><g
       id="g1944"><rect
         style="opacity:0;fill:#333333;fill-opacity:1;stroke:none;stroke-width:0;stroke-dasharray:none"
         id="rect177"
         width="45.411221"
         height="45.411221"
         x="68.046089"
         y="91.184647"
         transform="translate(0.03128837,-0.6042654)" /><g
         id="g250"
         transform="translate(6.735192,-2.6192413)"><g
           id="g15533"><path
             id="rect8518"
             style="fill:#5e5c64;fill-opacity:1;stroke:#505050;stroke-width:0.2;stroke-dasharray:none;stroke-opacity:1"
             d="m 62.350236,132.81345 43.256724,-0.30548 c 0.22163,-0.002 0.98712,0.31031 0.98712,0.69578 v 0.35808 c 0,0.67779 -0.34214,0.69576 -0.56378,0.69576 H 62.09462 c -0.221644,0 -0.593014,0.0163 -0.593014,-0.69576 v -0.35646 c 0,-0.38547 0.626992,-0.39035 0.84863,-0.39192 z" /><g
             id="g15526"><path
               id="rect2655-3"
               style="fill:#969696;fill-opacity:1;stroke:#505050;stroke-width:0.2;stroke-dasharray:none;stroke-opacity:1"
               d="m 66.555161,121.17825 h 34.999999 c 0.277,0 0.4144,0.20422 0.5,0.42146 l 4.49792,11.41529 c 0.16583,0.42085 -0.22301,0.422 -0.5,0.422 H 62.040708 c -0.277,0 -0.663728,-0.008 -0.5,-0.422 l 4.514453,-11.41529 c 0.08587,-0.21713 0.223,-0.42146 0.5,-0.42146 z" /><path
               id="rect2655-3-2"
               style="fill:#505050;fill-opacity:1;stroke-width:0.126797"
               d="m 67.196633,122.06125 h 33.709427 c 0.14987,0 0.23394,0.0992 0.27053,0.21224 l 1.86076,5.74858 c 0.0673,0.20786 -0.12066,0.21251 -0.27052,0.21251 H 65.293855 c -0.149872,0 -0.337642,-0.01 -0.270526,-0.21251 l 1.902777,-5.74858 c 0.03734,-0.1128 0.120655,-0.21224 0.270527,-0.21224 z" /><path
               id="rect2655-3-2-9"
               style="fill:#505050;fill-opacity:1;stroke-width:0.0564828"
               d="m 79.44918,128.57699 h 9.197812 c 0.04089,0 0.06211,0.0738 0.07381,0.15435 l 0.606984,4.18064 c 0.02124,0.14629 -0.08992,0.15454 -0.130814,0.15454 H 78.88006 c -0.04089,0 -0.136444,-0.001 -0.114118,-0.15454 l 0.609425,-4.18064 c 0.01174,-0.0805 0.03292,-0.15435 0.07381,-0.15435 z" /></g></g><rect
           style="fill:#969696;fill-opacity:1;stroke:#505050;stroke-width:0.207599;stroke-dasharray:none;stroke-opacity:1"
           id="rect2655"
           width="35.992401"
           height="23.617538"
           x="66.058968"
           y="97.556496"
           rx="0.49989447"
           ry="0.45418346" /><circle
           style="fill:#505050;fill-opacity:1;stroke-width:0.264583"
           id="path4843"
           cx="84.008392"
           cy="98.346527"
           r="0.34065562" /><path
           style="fill:#00c8ff;fill-opacity:1;stroke:#505050;stroke-width:0.106499;stroke-opacity:1"
           d="M 67.061315,109.67588 V 99.074636 h 16.99375 16.993755 v 10.601244 10.60125 H 84.055065 67.061315 Z"
           id="path4789" /><path
           d="m 82.655964,99.882176 -1.08711,3.262694 c -0.125985,0.0476 -0.251839,0.098 -0.374955,0.1539 l -3.073831,-1.5362 -1.978325,1.97833 1.539017,3.07663 a 6.9955097,6.9955097 0 0 0 -0.1623,0.37213 l -3.257109,1.08711 v 2.79821 l 3.2627,1.08711 c 0.04759,0.12584 0.09797,0.25183 0.153906,0.37495 l -1.536214,3.07383 1.978325,1.97834 3.076634,-1.53902 c 0.121754,0.0588 0.246233,0.11198 0.372152,0.16229 l 1.08711,3.25711 h 2.798207 l 1.087096,-3.26272 c 0.125853,-0.0476 0.251838,-0.0979 0.374952,-0.15389 l 3.073831,1.53623 1.97834,-1.97834 -1.539016,-3.07662 c 0.0587,-0.12175 0.111971,-0.24624 0.162299,-0.37216 l 3.257111,-1.08711 v -2.79821 l -3.262716,-1.08711 a 6.9815189,6.9815189 0 0 0 -0.153892,-0.37493 l 1.536214,-3.07383 -1.97834,-1.97833 -3.076617,1.539 a 6.984317,6.984317 0 0 0 -0.372166,-0.16231 l -1.087096,-3.257084 z m 1.399097,5.596404 a 4.1973059,4.1973059 0 1 1 0,8.39458 4.1973059,4.1973059 0 0 1 0,-8.39458 z"
           fill="#3d3846"
           id="path10858-1"
           style="fill:#3c4646;fill-opacity:1;stroke-width:0.349775" /><path
           d="M 67.109136,99.123656 H 92.99789 L 87.244839,120.2251 H 67.109136 Z"
           fill="#ffffff"
           opacity="0.2"
           id="path10860"
           style="opacity:0.25;stroke-width:0.344312" /><g
           id="g7838"
           transform="matrix(0.31443509,0,0,0.28254122,58.883599,78.60321)"
           style="fill:#937d4e;fill-opacity:1"><path
             id="rect7721"
             style="opacity:1;fill:#937d4e;fill-opacity:1;stroke-width:0.297695"
             d="m 73.379642,101.36022 h 3.349509 l -3.397358,17.23099 h -3.349509 z" /><path
             id="rect7721-3"
             style="fill:#937d4e;fill-opacity:1;stroke-width:0.297695"
             d="m 80.076914,101.36022 h 3.349509 l -3.397358,17.23099 h -3.349509 z" /><path
             id="rect7721-6"
             style="fill:#937d4e;fill-opacity:1;stroke-width:0.297695"
             d="m 86.774185,101.36022 h 3.349509 l -3.397358,17.23099 h -3.349509 z" /></g></g></g></g></svg>
